<?xml version="1.0" encoding="iso-8859-1"?>
<!-- Generator: Adobe Illustrator 16.0.0, SVG Export Plug-In . SVG Version: 6.00 Build 0)  -->
<!DOCTYPE svg PUBLIC "-//W3C//DTD SVG 1.1//EN" "http://www.w3.org/Graphics/SVG/1.1/DTD/svg11.dtd">
<svg version="1.1" id="Capa_1" xmlns="http://www.w3.org/2000/svg" xmlns:xlink="http://www.w3.org/1999/xlink" x="0px" y="0px"
	 width="897.5px" height="897.5px" viewBox="0 0 897.5 897.5" style="enable-background:new 0 0 897.5 897.5;" xml:space="preserve"
	>
<g>
	<g>
		<path d="M30.48,50v797.5c0,27.6,22.4,50,50,50h140.7c27.6,0,50-22.4,50-50V50c0-27.6-22.4-50-50-50H80.48
			C52.88,0,30.48,22.4,30.48,50z M226.98,798.399c0,11-9,20-20,20H94.68c-11,0-20-9-20-20v-3.8c0-11,9-20,20-20h112.3
			c11,0,20,9,20,20V798.399z M226.98,230c0,11-9,20-20,20H94.68c-11,0-20-9-20-20v-3.8c0-11,9-20,20-20h112.3c11,0,20,9,20,20V230z
			 M94.68,90.3h112.3c11,0,20,9,20,20v3.8c0,11-9,20-20,20H94.68c-11,0-20-9-20-20v-3.8C74.68,99.3,83.68,90.3,94.68,90.3z"/>
		<path d="M556.88,34.4c-10.601-25.5-39.9-37.6-65.4-27l-129.9,54c-25.5,10.6-37.6,39.9-27,65.4L640.88,863.1
			c10.6,25.5,39.899,37.601,65.399,27l129.9-54c25.5-10.6,37.6-39.899,27-65.399L556.88,34.4z M400.08,169.1l-1.5-3.5
			c-4.199-10.2,0.601-21.9,10.801-26.1l103.8-43.2c10.2-4.2,21.899,0.6,26.1,10.8l1.5,3.5c4.2,10.2-0.6,21.9-10.8,26.1l-103.7,43.1
			C416.08,184.1,404.38,179.3,400.08,169.1z M574.48,243.7l-103.7,43.1c-10.2,4.2-21.899-0.6-26.1-10.8l-1.5-3.5
			c-4.2-10.2,0.6-21.9,10.8-26.1l103.7-43.1c10.2-4.2,21.899,0.6,26.1,10.8l1.5,3.5C589.48,227.7,584.68,239.4,574.48,243.7z
			 M792.78,768.399L689.08,811.5c-10.199,4.2-21.899-0.601-26.1-10.8l-1.5-3.5c-4.2-10.2,0.6-21.9,10.8-26.101l103.7-43.1
			c10.2-4.2,21.9,0.6,26.1,10.8l1.5,3.5C807.78,752.5,802.98,764.2,792.78,768.399z"/>
	</g>
</g>
<g>
</g>
<g>
</g>
<g>
</g>
<g>
</g>
<g>
</g>
<g>
</g>
<g>
</g>
<g>
</g>
<g>
</g>
<g>
</g>
<g>
</g>
<g>
</g>
<g>
</g>
<g>
</g>
<g>
</g>
</svg>
